<?xml version="1.0" encoding="utf-8"?>
<!-- Generator: Adobe Illustrator 15.0.2, SVG Export Plug-In  -->
<!DOCTYPE svg PUBLIC "-//W3C//DTD SVG 1.1//EN" "http://www.w3.org/Graphics/SVG/1.1/DTD/svg11.dtd" [
	<!ENTITY ns_flows "http://ns.adobe.com/Flows/1.0/">
]>
<svg version="1.1"
	 xmlns="http://www.w3.org/2000/svg" xmlns:xlink="http://www.w3.org/1999/xlink" xmlns:a="http://ns.adobe.com/AdobeSVGViewerExtensions/3.0/"
	 x="0px" y="0px" width="78px" height="78px" viewBox="0 0 78 78" overflow="visible" enable-background="new 0 0 78 78"
	 xml:space="preserve">
<defs>
</defs>
<g>
	<g>
		<path d="M34.733,9.702c-0.06-0.015-0.207-0.029-0.442-0.044c-0.236-0.015-0.583-0.022-1.039-0.022c-0.458,0-1.068,0-1.834,0
			c-1.032,0-2.114,0.015-3.249,0.044c-1.134,0.03-2.128,0.118-2.983,0.266c-1.179,0.237-2.121,0.555-2.828,0.954
			c-0.707,0.399-1.348,0.969-1.923,1.708c-0.574,0.74-0.861,1.716-0.861,2.928c0,0.119,0.022,0.355,0.066,0.71
			c0.044,0.355,0.147,0.748,0.309,1.176c0.162,0.429,0.412,0.865,0.751,1.309c0.338,0.443,0.802,0.798,1.392,1.065
			c0.029,0.03,0.059,0.044,0.088,0.044h0.132c0.059,0,0.088-0.029,0.088-0.088c0-0.059-0.007-0.096-0.022-0.111
			c-0.015-0.014-0.022-0.081-0.022-0.199c0-0.71,0.147-1.523,0.442-2.44c0.294-0.917,0.758-1.782,1.392-2.595
			c0.633-0.813,1.451-1.509,2.453-2.085c1.001-0.577,2.194-0.865,3.58-0.865c0.235,0,0.435,0.008,0.597,0.022
			c0.161,0.015,0.272,0.022,0.332,0.022c0.088,0,0.132,0.015,0.132,0.044l-0.088,0.089c-0.03,0.029-0.044,0.06-0.044,0.088
			c-0.678,0.533-1.319,1.109-1.923,1.73c-0.604,0.621-1.171,1.272-1.701,1.952c-0.53,0.681-1.032,1.369-1.502,2.063
			c-0.472,0.695-0.899,1.369-1.282,2.019c-0.914,1.509-1.723,3.047-2.431,4.615c-0.53,1.242-1.126,2.788-1.79,4.636
			c-0.663,1.849-1.326,3.72-1.989,5.612c-0.663,1.893-1.304,3.683-1.922,5.369s-1.149,3.002-1.591,3.948
			c-0.56,1.212-1.142,2.175-1.746,2.884c-0.604,0.71-1.208,1.265-1.812,1.664c-0.604,0.399-1.164,0.658-1.679,0.776
			c-0.516,0.118-0.965,0.178-1.348,0.178c-0.206,0-0.53-0.052-0.972-0.156C7.024,48.907,6.582,48.7,6.14,48.39
			s-0.825-0.732-1.149-1.264c-0.325-0.533-0.486-1.242-0.486-2.13c0-0.148,0.007-0.37,0.022-0.665
			c0.014-0.296,0.066-0.584,0.154-0.865c0.088-0.282,0.213-0.532,0.375-0.754c0.162-0.222,0.391-0.333,0.685-0.333
			c0.059,0,0.118,0.03,0.177,0.089c0.147,0.148,0.235,0.296,0.265,0.443c0.118,0.355,0.294,0.68,0.53,0.976
			c0.206,0.236,0.457,0.458,0.751,0.665c0.294,0.207,0.692,0.311,1.193,0.311c0.825-0.029,1.576-0.266,2.253-0.709
			c0.56-0.355,1.075-0.932,1.547-1.731c0.471-0.798,0.707-1.937,0.707-3.416c0-1.094-0.199-1.937-0.597-2.529
			c-0.397-0.591-0.833-1.021-1.304-1.287c-0.53-0.325-1.149-0.503-1.856-0.533c-1.12,0-2.099,0.2-2.938,0.599
			c-0.84,0.399-1.555,0.91-2.144,1.531c-0.59,0.621-1.076,1.309-1.458,2.063c-0.383,0.754-0.678,1.494-0.884,2.218
			c-0.207,0.725-0.354,1.398-0.442,2.019s-0.132,1.094-0.132,1.419c0,1.271,0.169,2.344,0.508,3.217
			c0.338,0.872,0.773,1.597,1.304,2.174c0.53,0.577,1.126,1.021,1.79,1.332c0.663,0.311,1.296,0.539,1.9,0.687
			c0.604,0.148,1.156,0.236,1.657,0.267c0.5,0.029,0.869,0.044,1.104,0.044c0.56,0,1.23-0.044,2.011-0.133
			c0.78-0.089,1.613-0.288,2.497-0.599s1.797-0.748,2.74-1.309c0.942-0.562,1.841-1.317,2.695-2.263
			c0.943-1.036,1.746-2.203,2.409-3.505c0.663-1.301,1.215-2.529,1.657-3.683c0.53-1.36,0.957-2.735,1.282-4.126
			c0.147-0.591,0.346-1.39,0.596-2.396c0.25-1.005,0.515-2.085,0.796-3.239c0.279-1.153,0.574-2.314,0.883-3.483
			c0.31-1.168,0.589-2.24,0.84-3.216c0.25-0.976,0.471-1.782,0.663-2.418c0.191-0.636,0.316-0.983,0.375-1.043
			c0.589-1.715,1.215-3.239,1.878-4.57c0.663-1.331,1.274-2.469,1.834-3.416c0.647-1.094,1.282-2.041,1.9-2.839
			c0.059-0.059,0.088-0.133,0.088-0.222C34.821,9.739,34.792,9.717,34.733,9.702z"/>
	</g>
</g>
<g>
	<g>
		<path d="M49.094,59.76l-0.222-0.222c-0.795-1.036-1.605-2.079-2.431-3.129c-0.824-1.049-1.59-2.121-2.298-3.216
			c-0.029-0.029-0.044-0.059-0.044-0.089c0-0.059,0.029-0.118,0.088-0.178c0.06-0.059,0.118-0.103,0.178-0.133
			c0.029,0.03,0.177-0.089,0.441-0.355c0.266-0.266,0.597-0.635,0.994-1.109c0.398-0.473,0.818-1.049,1.26-1.73
			c0.441-0.68,0.854-1.42,1.237-2.218c0.383-0.799,0.699-1.656,0.95-2.574c0.25-0.916,0.376-1.863,0.376-2.839
			c0-0.444-0.022-0.938-0.066-1.486c-0.044-0.547-0.185-1.057-0.42-1.53c-0.236-0.473-0.604-0.865-1.104-1.176
			c-0.502-0.311-1.209-0.466-2.121-0.466c-0.119,0-0.428,0.059-0.929,0.177s-1.023,0.363-1.568,0.732
			c-0.546,0.37-1.039,0.895-1.48,1.575c-0.442,0.681-0.663,1.583-0.663,2.707c0,0.237,0.029,0.54,0.089,0.909
			c0.058,0.37,0.19,0.732,0.397,1.087c0.205,0.355,0.5,0.659,0.884,0.91c0.382,0.251,0.898,0.376,1.546,0.376
			c0.147,0,0.391-0.073,0.729-0.222c0.339-0.147,0.582-0.222,0.729-0.222c0.235,0,0.354,0.104,0.354,0.311
			c0,0.06-0.037,0.244-0.11,0.555c-0.074,0.311-0.221,0.709-0.442,1.198c-0.221,0.488-0.53,1.036-0.928,1.642
			c-0.398,0.606-0.921,1.25-1.568,1.93c0,0.029-0.016,0.044-0.045,0.044h-0.088c-0.06,0-0.097-0.022-0.11-0.066
			c-0.016-0.044-0.052-0.096-0.111-0.155c-0.383-0.591-0.803-1.323-1.259-2.196c-0.457-0.872-0.936-1.782-1.437-2.729
			c-0.501-0.946-0.987-1.9-1.458-2.862c-0.472-0.96-0.899-1.833-1.282-2.618c-0.383-0.783-0.706-1.441-0.972-1.974
			c-0.266-0.532-0.413-0.857-0.442-0.976v-0.089c0-0.029,0.015-0.059,0.045-0.088c0.028,0,0.059-0.015,0.088-0.045
			c2.298-1.094,4.132-2.158,5.502-3.194c1.37-1.035,2.408-2.011,3.115-2.928c0.707-0.916,1.172-1.737,1.393-2.462
			c0.221-0.724,0.331-1.309,0.331-1.752c0-0.798-0.17-1.442-0.508-1.93c-0.339-0.488-0.767-0.865-1.282-1.131
			c-0.516-0.267-1.054-0.444-1.612-0.533c-0.561-0.088-1.061-0.133-1.503-0.133c-2.445,0-4.449,0.407-6.01,1.22
			c-1.562,0.813-2.8,1.797-3.712,2.95c-0.914,1.153-1.547,2.345-1.9,3.571c-0.354,1.228-0.53,2.256-0.53,3.084
			c0,0.77,0.066,1.516,0.199,2.24c0.133,0.725,0.287,1.427,0.464,2.107c0,0.06-0.029,0.104-0.088,0.133
			c-0.089,0.06-0.361,0.215-0.818,0.466c-0.457,0.251-1.002,0.606-1.635,1.064c-0.634,0.459-1.304,1.021-2.011,1.686
			c-0.707,0.666-1.363,1.436-1.966,2.307c-0.604,0.873-1.105,1.834-1.502,2.884c-0.398,1.05-0.597,2.197-0.597,3.439
			c0,0.77,0.177,1.664,0.53,2.684c0.354,1.021,0.928,1.982,1.724,2.884c0.795,0.902,1.834,1.664,3.115,2.285
			c1.282,0.621,2.835,0.932,4.663,0.932c1.089,0,2.401-0.185,3.933-0.555c1.531-0.369,3.152-1.116,4.861-2.24
			c0.028-0.029,0.073-0.044,0.132-0.044c0.029,0,0.045,0.008,0.045,0.022s0.015,0.021,0.044,0.021h0.044
			c1.237,1.302,2.512,2.329,3.822,3.084c1.312,0.754,2.688,1.131,4.133,1.131c0.029,0,0.103-0.008,0.221-0.022
			c0.117-0.015,0.235-0.037,0.354-0.065c0.117-0.03,0.229-0.067,0.331-0.111c0.104-0.045,0.155-0.111,0.155-0.2
			c0-0.06-0.021-0.118-0.066-0.177C49.205,59.877,49.153,59.818,49.094,59.76z M34.864,30.255c0.177-0.799,0.471-1.553,0.884-2.263
			c0.412-0.71,0.95-1.301,1.613-1.775c0.663-0.473,1.48-0.71,2.452-0.71c0.178,0,0.369,0.016,0.575,0.045
			c0.205,0.029,0.397,0.11,0.574,0.244s0.324,0.34,0.442,0.621c0.117,0.282,0.177,0.659,0.177,1.131
			c0,0.917-0.288,1.812-0.862,2.684c-0.574,0.873-1.223,1.664-1.944,2.374c-0.723,0.71-1.422,1.316-2.099,1.819
			c-0.679,0.503-1.135,0.829-1.37,0.976l-0.089,0.044c-0.029,0-0.044,0.015-0.044,0.044c-0.088,0-0.162-0.125-0.221-0.377
			s-0.118-0.54-0.176-0.865c-0.06-0.325-0.104-0.666-0.133-1.021c-0.03-0.355-0.044-0.621-0.044-0.799
			C34.599,31.779,34.687,31.054,34.864,30.255z M38.156,54.28c-0.132,0.074-0.258,0.126-0.375,0.155
			c-0.206,0.089-0.442,0.163-0.707,0.222c-0.236,0.06-0.509,0.104-0.817,0.133c-0.31,0.03-0.642,0.045-0.995,0.045
			c-0.825,0-1.68-0.17-2.563-0.511c-0.884-0.34-1.695-0.843-2.431-1.509c-0.737-0.665-1.341-1.5-1.812-2.506
			c-0.472-1.006-0.707-2.174-0.707-3.505c0-0.946,0.184-1.967,0.552-3.061c0.368-1.094,1.112-2.1,2.232-3.017
			c0.088,0,0.132,0.015,0.132,0.044c0.059,0.178,0.125,0.34,0.199,0.488c0.073,0.148,0.139,0.266,0.199,0.354
			c0.059,0.119,0.103,0.222,0.132,0.311c0.56,1.302,1.208,2.647,1.944,4.038c0.619,1.183,1.37,2.492,2.254,3.926
			c0.883,1.435,1.856,2.817,2.917,4.148c0.029,0,0.044,0.016,0.044,0.045C38.355,54.14,38.289,54.207,38.156,54.28z"/>
	</g>
</g>
<g>
	<g>
		<path d="M76.125,31.272c-0.192-0.384-0.42-0.688-0.686-0.909c-0.265-0.222-0.552-0.37-0.861-0.444
			c-0.31-0.073-0.582-0.111-0.817-0.111c-0.855,0-1.834,0.296-2.939,0.887c-1.104,0.592-2.239,1.324-3.402,2.196
			c-1.164,0.873-2.306,1.827-3.425,2.862c-1.12,1.036-2.121,2.004-3.005,2.906c-0.885,0.902-1.599,1.663-2.144,2.285
			c-0.546,0.621-0.817,0.947-0.817,0.976c-0.118,0.148-0.207,0.222-0.266,0.222h-0.044v-0.089c0-0.088,0.014-0.162,0.044-0.222
			c0-0.059,0.015-0.103,0.044-0.133c0.618-2.484,1.223-4.466,1.812-5.945c0.589-1.479,1.119-2.618,1.591-3.417
			c0.53-0.946,1.061-1.582,1.591-1.908l0.088-0.178c0-0.088-0.214-0.162-0.641-0.222c-0.427-0.059-0.913-0.111-1.458-0.155
			c-0.546-0.044-1.083-0.081-1.613-0.111c-0.53-0.029-0.884-0.044-1.061-0.044c-3.094,0-5.745,0.399-7.955,1.198
			c-2.209,0.799-4.021,1.79-5.436,2.973c-1.414,1.184-2.452,2.456-3.115,3.815c-0.663,1.361-0.994,2.618-0.994,3.771
			c0,0.444,0.036,0.939,0.11,1.486c0.073,0.547,0.25,1.058,0.53,1.531c0.279,0.474,0.691,0.865,1.237,1.175
			c0.545,0.311,1.274,0.466,2.188,0.466c1.001-0.059,1.886-0.311,2.651-0.754c0.678-0.384,1.297-0.983,1.856-1.797
			c0.56-0.813,0.84-1.989,0.84-3.527c0-0.858-0.17-1.457-0.509-1.797c-0.339-0.339-0.707-0.562-1.104-0.665
			s-0.759-0.163-1.083-0.178c-0.324-0.015-0.486-0.14-0.486-0.377c0-0.355,0.104-0.702,0.31-1.043
			c0.206-0.339,0.324-0.51,0.354-0.51c0.53-0.622,1.223-1.198,2.077-1.73c0.736-0.414,1.68-0.806,2.828-1.176
			c1.149-0.37,2.563-0.555,4.243-0.555c0.117,0,0.287,0,0.508,0s0.442,0.008,0.663,0.022c0.221,0.016,0.412,0.038,0.574,0.067
			c0.161,0.03,0.243,0.06,0.243,0.088c0,0.03-0.029,0.074-0.088,0.133c-0.855,0.799-1.754,1.834-2.696,3.106
			c-0.795,1.094-1.694,2.522-2.695,4.281c-1.002,1.76-2.004,3.897-3.006,6.411c-0.295,0.71-0.604,1.45-0.928,2.219
			c-0.266,0.651-0.553,1.369-0.861,2.152c-0.31,0.784-0.597,1.546-0.862,2.285c-0.618,1.597-1.312,3.149-2.076,4.658
			c-0.325,0.651-0.686,1.316-1.083,1.996c-0.398,0.682-0.833,1.354-1.304,2.02c-0.472,0.665-0.958,1.302-1.459,1.907
			c-0.501,0.606-1.031,1.146-1.591,1.619c-0.029,0-0.044,0.015-0.044,0.045l-0.045,0.089c0,0.059,0.03,0.096,0.089,0.111
			c0.059,0.014,0.235,0.021,0.531,0.021c0.293,0,0.779-0.044,1.457-0.133s1.466-0.311,2.365-0.665
			c0.898-0.355,1.893-0.896,2.982-1.62s2.195-1.723,3.314-2.994c0.796-0.888,1.51-1.96,2.144-3.217
			c0.633-1.257,1.171-2.463,1.613-3.616c0.53-1.36,1.001-2.751,1.414-4.17c0.177-0.621,0.412-1.228,0.707-1.819
			c0.294-0.592,0.707-1.138,1.237-1.642h0.044c0.029,0,0.044-0.007,0.044-0.022c0-0.014,0.016-0.022,0.045-0.022
			c0.177,0,0.265,0.488,0.265,1.464c0,0.976,0.029,2.196,0.089,3.66c0.059,1.464,0.213,3.054,0.464,4.77
			c0.25,1.715,0.714,3.305,1.392,4.769c0.678,1.465,1.636,2.685,2.873,3.661c0.79,0.623,1.741,1.047,2.855,1.272l3.01-3.576
			c-0.289-0.418-0.564-0.848-0.827-1.291c-0.914-1.537-1.688-3.12-2.32-4.747c-0.634-1.626-1.149-3.231-1.547-4.813
			c-0.397-1.582-0.715-3.032-0.95-4.348c-0.236-1.316-0.391-2.44-0.464-3.372c-0.074-0.932-0.11-1.545-0.11-1.841
			c0-0.562,0.103-0.946,0.31-1.154c1.266-1.271,2.387-2.27,3.358-2.995c0.973-0.725,1.812-1.257,2.52-1.597
			c0.707-0.34,1.287-0.547,1.745-0.621c0.456-0.074,0.832-0.111,1.127-0.111c0.53,0,0.994,0.082,1.392,0.244
			c0.398,0.163,0.729,0.348,0.994,0.555c0.324,0.237,0.59,0.503,0.796,0.799c0.029,0.119,0.088,0.177,0.177,0.177h0.088l0.045-0.044
			c0.5-0.65,0.832-1.271,0.994-1.863c0.162-0.591,0.243-1.094,0.243-1.508C76.412,32.175,76.316,31.657,76.125,31.272z"/>
	</g>
</g>
<ellipse fill="none" stroke="#000000" stroke-width="3" stroke-miterlimit="10" cx="38.852" cy="39" rx="37.352" ry="37.5"/>
</svg>
